<?xml version="1.0" encoding="UTF-8"?>
<svg id="Laag_2" data-name="Laag 2" xmlns="http://www.w3.org/2000/svg" viewBox="0 0 141.7 39.6">
  <defs>
    <style>
      .cls-1 {
        fill: #fff;
      }
    </style>
  </defs>
  <g id="logo">
    <g>
      <g>
        <path class="cls-1" d="M28.8,34.8c2.5,0,3.8-1.7,3.8-4v-11.8h5.3v12.1c-.1,5.3-4.3,7.4-9.1,7.4s-9.1-2.1-9.1-7.4v-12.1h5.3v11.8c-.1,2.4,1.3,4,3.8,4Z"/>
        <path class="cls-1" d="M63.9,30.2c0-2.1,1.3-4,3.4-4,2.4,0,3.4,1.7,3.4,4h-6.8Zm9.4,1.8v-1.2c0-3.7-2.1-6.3-5.9-6.3-4.2,0-6.2,3.3-6.2,7.2s1.7,6.9,6,6.9c3.2,0,5.5-1.5,5.9-4.5h-2.7c-.3,1.9-1.3,2.7-3.2,2.7-2.6,0-3.4-2.3-3.4-4.7h9.5v-.1Z"/>
        <rect class="cls-1" x="76.4" y="19" width="2.5" height="19.1"/>
        <polygon class="cls-1" points="5.9 38.1 11.2 38.1 11.2 22.7 17.1 22.7 17.1 19 0 19 0 22.7 5.9 22.7 5.9 38.1"/>
        <path class="cls-1" d="M18.6,9.7c-1.3,.4-2.6,.1-2.6-1.6,0-2.6,6.2-4.8,7.1-7.1,.2-.6,.2-1,0-1s0,.3-.5,.7c-2.6,2.6-6.9,2.6-10.2,4-2.2,1-8.5,4-7,10.6,.1,.3,.3,1.4,.5,1.4s.2-.6,.2-1.4c0-4,4.6-5.1,6.2-7.7,.2-.3,.5-.7,.6-.5v.5c-.5,2.1-2.7,3.5-2.1,5,.8,2,3.2,.5,3.9-.8,.2-.3,.3-.6,.4-.5,.1,0,.1,.4,0,.8-.4,2.3-.9,3.6-2.6,4.9-.5,.4-1.4,.5-1.3,.8,0,.1,.4,.1,.7,0,4.5-.3,8.2-5.5,9.2-9,.1-.2,.1-.5,0-.6s-.3,.1-.5,.3c-.6,.5-1.3,1-2,1.2Z"/>
        <g>
          <path class="cls-1" d="M106.5,19c1.6,0,2.6,.8,2.6,2.5,0,1.6-.9,2.5-2.6,2.5h-1.3v-5h1.3Zm.2,4.5c1.4,0,2-.8,2-2.1,0-1.5-.9-2.1-2.3-2.1h-.7v4.1h1v.1Z"/>
          <path class="cls-1" d="M110.1,22.3c0,.7,.4,1.4,1.2,1.4,.5,0,.9-.4,1-.8h.4c-.2,.8-.7,1.2-1.6,1.2-1,0-1.5-.9-1.5-1.8s.5-1.8,1.5-1.8c1.2,0,1.6,.8,1.6,1.9h-2.6v-.1Zm2.2-.3c0-.7-.4-1.2-1.1-1.2s-1,.6-1.1,1.2h2.2Z"/>
        </g>
        <g>
          <path class="cls-1" d="M113.9,24h-.4v-5h.4v5Z"/>
          <path class="cls-1" d="M115.3,24v-3.1h-.7v-.4h.7v-.7c0-.6,.2-.9,.8-.9,.1,0,.3,0,.4,.1v.3h-.3c-.6,0-.6,.3-.6,.8v.4h.8v.4h-.8v3.1s-.3,0-.3,0Z"/>
        </g>
        <path class="cls-1" d="M117.4,20.9h-.7v-.4h.7v-.7l.4-.2v.9h.8v.4h-.8v2.3c0,.3,.2,.5,.5,.5h.4v.4c-.1,0-.3,.1-.4,.1-.9,0-.8-.6-.8-1v-2.3h-.1Z"/>
        <g>
          <path class="cls-1" d="M105.6,26.1v3.2c0,.9,.5,1.4,1.4,1.4,.8,0,1.3-.5,1.4-1.4v-3.2h.4v3.2c0,1.1-.6,1.8-1.8,1.8s-1.8-.8-1.8-1.8v-3.2h.4Z"/>
          <path class="cls-1" d="M110.1,31h-.4v-3.5h.4v.5h0c.2-.4,.6-.6,1.1-.6,1.1,0,1.2,1,1.2,1.4v2.2h-.4v-2.2c0-.6-.3-.9-.9-.9-.7,0-1,.6-1,1.2,0,0,0,1.9,0,1.9Z"/>
        </g>
        <g>
          <path class="cls-1" d="M113.8,26.6h-.5v-.5h.5v.5Zm0,1v3.4h-.4v-3.4h.4Z"/>
          <path class="cls-1" d="M114.9,27.6l1.2,2.9,1.1-2.9h.5l-1.4,3.4h-.5l-1.4-3.4h.5Z"/>
        </g>
        <g>
          <path class="cls-1" d="M118.4,29.4c0,.7,.4,1.4,1.2,1.4,.5,0,.9-.4,1-.8h.4c-.2,.8-.7,1.2-1.6,1.2-1,0-1.5-.9-1.5-1.8s.5-1.8,1.5-1.8c1.2,0,1.6,.8,1.6,1.9h-2.6v-.1Zm2.2-.4c0-.7-.4-1.2-1.1-1.2s-1,.6-1.1,1.2h2.2Z"/>
          <path class="cls-1" d="M122.2,31h-.4v-3.5h.4v.5h0c.1-.4,.4-.6,.8-.6h.4v.4h-.3c-.6,0-.9,.4-.9,1.1v2.1Z"/>
          <path class="cls-1" d="M125.1,27.5c.7,0,1.2,.2,1.3,1h-.4c0-.4-.4-.6-.9-.6-.4,0-.8,.2-.8,.6,0,.5,.7,.5,1.6,.8,.4,.1,.6,.4,.6,.8,0,.8-.7,1.1-1.4,1.1-.6,0-1.3-.3-1.3-1h.4c0,.5,.5,.7,1,.7,.4,0,.9-.2,.9-.7s-.5-.6-1.1-.7c-.5-.1-1.1-.3-1.1-.9,0-.9,.6-1.1,1.2-1.1Z"/>
          <path class="cls-1" d="M127.7,26.6h-.5v-.5h.5v.5Zm0,1v3.4h-.4v-3.4h.4Z"/>
        </g>
        <g>
          <path class="cls-1" d="M129.1,28h-.7v-.4h.7v-.7l.4-.2v.9h.8v.4h-.8v2.3c0,.3,.2,.5,.5,.5h.4v.4c-.1,0-.3,.1-.4,.1-.9,0-.8-.6-.8-1v-2.3h-.1Z"/>
          <path class="cls-1" d="M131.3,27.6l1.2,2.9,1.2-2.9h.4l-1.9,4.8h-.5l.5-1.3-1.4-3.4h.5v-.1Z"/>
        </g>
        <path class="cls-1" d="M139.6,29.3c0,.9-.5,1.8-1.6,1.8s-1.6-.9-1.6-1.8,.5-1.8,1.6-1.8c1,0,1.6,.9,1.6,1.8Zm-1.7-1.4c-.8,0-1.2,.8-1.2,1.4s.3,1.4,1.2,1.4c.8,0,1.2-.8,1.2-1.4s-.3-1.4-1.2-1.4Z"/>
        <path class="cls-1" d="M140.5,31v-3.1h-.7v-.4h.7v-.7c0-.6,.2-.9,.8-.9,.1,0,.3,0,.4,.1v.3h-.3c-.6,0-.6,.3-.6,.8v.4h.8v.4h-.8v3.1s-.3,0-.3,0Z"/>
        <g>
          <path class="cls-1" d="M106.8,33.6h-1.6v-.4h3.6v.4h-1.6v4.5h-.5v-4.5h.1Z"/>
          <path class="cls-1" d="M108.8,36.5c0,.7,.4,1.4,1.2,1.4,.5,0,.9-.4,1-.8h.4c-.2,.8-.7,1.2-1.6,1.2-1,0-1.5-.9-1.5-1.8s.5-1.8,1.5-1.8c1.2,0,1.6,.8,1.6,1.9h-2.6v-.1Zm2.2-.4c0-.7-.4-1.2-1.1-1.2s-1,.6-1.1,1.2h2.2Z"/>
        </g>
        <g>
          <path class="cls-1" d="M114.5,35.7c0-.5-.4-.8-.9-.8-.6,0-1,.7-1,1.4,0,.8,.4,1.5,1,1.5,.5,0,.9-.3,.9-.8h.4c-.1,.8-.6,1.2-1.3,1.2-1,0-1.5-.9-1.5-1.8s.5-1.8,1.5-1.8c.7,0,1.3,.4,1.3,1.2h-.4v-.1Z"/>
          <path class="cls-1" d="M116,35.2h0c.3-.4,.6-.6,1.1-.6,1.1,0,1.2,1,1.2,1.4v2.2h-.4v-2.2c0-.6-.3-.9-.9-.9-.7,0-1,.6-1,1.2v2h-.4v-5h.4s0,1.9,0,1.9Z"/>
        </g>
        <g>
          <path class="cls-1" d="M119.5,38.1h-.4v-3.5h.4v.5h0c.2-.4,.6-.6,1.1-.6,1.1,0,1.2,1,1.2,1.4v2.2h-.4v-2.2c0-.6-.3-.9-.9-.9-.7,0-1,.6-1,1.2v1.9Z"/>
          <path class="cls-1" d="M125.8,36.4c0,.9-.5,1.8-1.6,1.8s-1.6-.9-1.6-1.8,.5-1.8,1.6-1.8,1.6,.9,1.6,1.8Zm-1.6-1.4c-.8,0-1.2,.8-1.2,1.4s.3,1.4,1.2,1.4c.8,0,1.2-.8,1.2-1.4s-.3-1.4-1.2-1.4Z"/>
        </g>
        <g>
          <path class="cls-1" d="M127,38.1h-.4v-5h.4v5Z"/>
          <path class="cls-1" d="M130.9,36.4c0,.9-.5,1.8-1.6,1.8s-1.6-.9-1.6-1.8,.5-1.8,1.6-1.8,1.6,.9,1.6,1.8Zm-1.6-1.4c-.8,0-1.2,.8-1.2,1.4s.3,1.4,1.2,1.4c.8,0,1.2-.8,1.2-1.4-.1-.6-.4-1.4-1.2-1.4Z"/>
        </g>
        <g>
          <path class="cls-1" d="M134.1,34.7h.4v2.9c0,.7,0,1.4-.7,1.8-.3,.1-.5,.2-.8,.2-.6,0-1.4-.2-1.4-.9h.4c0,.4,.5,.5,1,.5s1-.4,1-1v-.6h0c-.2,.4-.7,.6-1.1,.6-1,0-1.5-.8-1.5-1.7s.4-1.8,1.5-1.8c.5,0,.9,.2,1.1,.6h0l.1-.6Zm-1.1,.3c-.7,0-1.1,.8-1.1,1.4s.3,1.4,1.1,1.4,1.1-.7,1.1-1.4c0-.7-.4-1.4-1.1-1.4Z"/>
          <path class="cls-1" d="M135.6,34.7l1.2,2.9,1.2-2.9h.4l-1.9,4.8h-.5l.5-1.3-1.4-3.4h.5v-.1Z"/>
        </g>
      </g>
      <path class="cls-1" d="M86.8,38.1v-11.5h3.1v-1.8h-3.1v-2.1c0-1.5,.7-1.8,2.2-1.8,.4,0,.8,.1,1.3,.1v-2.1c-.6-.1-1.2-.3-1.8-.3-2.4,0-4.2,1.2-4.2,3.7v2.5h-2.6v1.8h2.6v11.6h2.5v-.1Z"/>
      <path class="cls-1" d="M91.3,24.8v1.8h2.3v8.5c0,1.8,0,3.5,3.8,3.5,.6,0,1.1-.1,1.7-.2v-1.9c-.4,.1-.9,.2-1.3,.2-.9,0-1.6-.5-1.6-1.4v-8.6h3.1v-1.8h-3.1v-3.6l-2.5,.8v2.8l-2.4-.1Z"/>
      <path class="cls-1" d="M43.2,38.1h6.6c8.2,0,9-6.9,9-9.6s-.9-9.6-9-9.6h-6.6s0,19.2,0,19.2Zm2.7-16.8h3.9c4.4,0,6.3,3.3,6.3,7.3s-1.8,7.3-6.3,7.3h-3.9s0-14.6,0-14.6Z"/>
    </g>
  </g>
</svg>