<?xml version="1.0" encoding="utf-8"?>
<!-- Generator: Adobe Illustrator 26.3.1, SVG Export Plug-In . SVG Version: 6.00 Build 0)  -->
<svg version="1.1" id="logo" xmlns="http://www.w3.org/2000/svg" xmlns:xlink="http://www.w3.org/1999/xlink" x="0px" y="0px"
	 viewBox="0 0 162.6 76.5" style="enable-background:new 0 0 162.6 76.5;" xml:space="preserve">
<style type="text/css">
	.st0{fill:none;}
	.st1{fill:#FFFFFF;}
</style>
<g>
	<rect class="st0" width="162.6" height="76.5"/>
	<g>
		<path class="st1" d="M38.4,44.5c2.5,0,3.8-1.7,3.8-4V28.7h5.3v12.1c-0.1,5.3-4.3,7.4-9.1,7.4c-4.8,0-9.1-2.1-9.1-7.4V28.7h5.3
			v11.8C34.5,42.9,35.9,44.5,38.4,44.5z"/>
		<path class="st1" d="M73.5,39.9c0-2.1,1.3-4,3.4-4c2.4,0,3.4,1.7,3.4,4H73.5z M82.9,41.7v-1.2c0-3.7-2.1-6.3-5.9-6.3
			c-4.2,0-6.2,3.3-6.2,7.2c0,3.9,1.7,6.9,6,6.9c3.2,0,5.5-1.5,5.9-4.5h-2.7c-0.3,1.9-1.3,2.7-3.2,2.7c-2.6,0-3.4-2.3-3.4-4.7H82.9z"
			/>
		<rect x="86" y="28.7" class="st1" width="2.5" height="19.1"/>
		<polygon class="st1" points="15.5,47.8 20.8,47.8 20.8,32.4 26.7,32.4 26.7,28.7 9.6,28.7 9.6,32.4 15.5,32.4 		"/>
		<path class="st1" d="M28.2,19.4c-1.3,0.4-2.6,0.1-2.6-1.6c0-2.6,6.2-4.8,7.1-7.1c0.2-0.6,0.2-1,0-1c-0.2,0,0,0.3-0.5,0.7
			c-2.6,2.6-6.9,2.6-10.2,4c-2.2,1-8.5,4-7,10.6c0.1,0.3,0.3,1.4,0.5,1.4c0.2,0,0.2-0.6,0.2-1.4c0-4,4.6-5.1,6.2-7.7
			c0.2-0.3,0.5-0.7,0.6-0.5c0,0.1,0,0.2,0,0.5c-0.5,2.1-2.7,3.5-2.1,5c0.8,2,3.2,0.5,3.9-0.8c0.2-0.3,0.3-0.6,0.4-0.5
			c0.1,0,0.1,0.4,0,0.8c-0.4,2.3-0.9,3.6-2.6,4.9c-0.5,0.4-1.4,0.5-1.3,0.8c0,0.1,0.4,0.1,0.7,0c4.5-0.3,8.2-5.5,9.2-9
			c0.1-0.2,0.1-0.5,0-0.6c-0.1-0.1-0.3,0.1-0.5,0.3C29.6,18.7,28.9,19.2,28.2,19.4z"/>
		<g>
			<path class="st1" d="M116.1,28.7c1.6,0,2.6,0.8,2.6,2.5c0,1.6-0.9,2.5-2.6,2.5h-1.3v-5H116.1z M116.3,33.2c1.4,0,2-0.8,2-2.1
				c0-1.5-0.9-2.1-2.3-2.1h-0.7v4.1H116.3z"/>
			<path class="st1" d="M119.7,32c0,0.7,0.4,1.4,1.2,1.4c0.5,0,0.9-0.4,1-0.8h0.4c-0.2,0.8-0.7,1.2-1.6,1.2c-1,0-1.5-0.9-1.5-1.8
				c0-0.9,0.5-1.8,1.5-1.8c1.2,0,1.6,0.8,1.6,1.9H119.7z M121.9,31.7c0-0.7-0.4-1.2-1.1-1.2c-0.7,0-1,0.6-1.1,1.2H121.9z"/>
		</g>
		<g>
			<path class="st1" d="M123.5,33.7h-0.4v-5h0.4V33.7z"/>
			<path class="st1" d="M124.9,33.7v-3.1h-0.7v-0.4h0.7v-0.7c0-0.6,0.2-0.9,0.8-0.9c0.1,0,0.3,0,0.4,0.1V29c-0.1,0-0.2,0-0.3,0
				c-0.6,0-0.6,0.3-0.6,0.8v0.4h0.8v0.4h-0.8v3.1H124.9z"/>
		</g>
		<g>
			<path class="st1" d="M127,30.6h-0.7v-0.4h0.7v-0.7l0.4-0.2v0.9h0.8v0.4h-0.8v2.3c0,0.3,0.2,0.5,0.5,0.5c0.1,0,0.2,0,0.4,0v0.4
				c-0.1,0-0.3,0.1-0.4,0.1c-0.9,0-0.8-0.6-0.8-1V30.6z"/>
		</g>
		<g>
			<path class="st1" d="M115.2,35.8V39c0,0.9,0.5,1.4,1.4,1.4c0.8,0,1.3-0.5,1.4-1.4v-3.2h0.4V39c0,1.1-0.6,1.8-1.8,1.8
				s-1.8-0.8-1.8-1.8v-3.2H115.2z"/>
			<path class="st1" d="M119.7,40.7h-0.4v-2.7c0-0.3,0-0.5,0-0.8h0.4l0,0.5l0,0c0.2-0.4,0.6-0.6,1.1-0.6c1.1,0,1.2,1,1.2,1.4v2.2
				h-0.4v-2.2c0-0.6-0.3-0.9-0.9-0.9c-0.7,0-1,0.6-1,1.2V40.7z"/>
		</g>
		<g>
			<path class="st1" d="M123.4,36.3h-0.5v-0.5h0.5V36.3z M123.4,37.3v3.4H123v-3.4H123.4z"/>
			<path class="st1" d="M124.5,37.3l1.2,2.9l1.1-2.9h0.5l-1.4,3.4h-0.5l-1.4-3.4H124.5z"/>
		</g>
		<g>
			<path class="st1" d="M128,39.1c0,0.7,0.4,1.4,1.2,1.4c0.5,0,0.9-0.4,1-0.8h0.4c-0.2,0.8-0.7,1.2-1.6,1.2c-1,0-1.5-0.9-1.5-1.8
				c0-0.9,0.5-1.8,1.5-1.8c1.2,0,1.6,0.8,1.6,1.9H128z M130.2,38.7c0-0.7-0.4-1.2-1.1-1.2c-0.7,0-1,0.6-1.1,1.2H130.2z"/>
			<path class="st1" d="M131.8,40.7h-0.4v-2.7c0-0.3,0-0.5,0-0.8h0.4l0,0.5h0c0.1-0.4,0.4-0.6,0.8-0.6c0.1,0,0.3,0,0.4,0v0.4
				c-0.1,0-0.2,0-0.3,0c-0.6,0-0.9,0.4-0.9,1.1V40.7z"/>
			<path class="st1" d="M134.7,37.2c0.7,0,1.2,0.2,1.3,1h-0.4c0-0.4-0.4-0.6-0.9-0.6c-0.4,0-0.8,0.2-0.8,0.6c0,0.5,0.7,0.5,1.6,0.8
				c0.4,0.1,0.6,0.4,0.6,0.8c0,0.8-0.7,1.1-1.4,1.1c-0.6,0-1.3-0.3-1.3-1h0.4c0,0.5,0.5,0.7,1,0.7c0.4,0,0.9-0.2,0.9-0.7
				c0-0.5-0.5-0.6-1.1-0.7c-0.5-0.1-1.1-0.3-1.1-0.9C133.5,37.4,134.1,37.2,134.7,37.2z"/>
			<path class="st1" d="M137.3,36.3h-0.5v-0.5h0.5V36.3z M137.3,37.3v3.4h-0.4v-3.4H137.3z"/>
		</g>
		<g>
			<path class="st1" d="M138.7,37.7H138v-0.4h0.7v-0.7l0.4-0.2v0.9h0.8v0.4h-0.8V40c0,0.3,0.2,0.5,0.5,0.5c0.1,0,0.2,0,0.4,0v0.4
				c-0.1,0-0.3,0.1-0.4,0.1c-0.9,0-0.8-0.6-0.8-1V37.7z"/>
			<path class="st1" d="M140.9,37.3l1.2,2.9l1.2-2.9h0.4l-1.9,4.8h-0.5l0.5-1.3l-1.4-3.4H140.9z"/>
		</g>
		<g>
			<path class="st1" d="M149.2,39c0,0.9-0.5,1.8-1.6,1.8c-1.1,0-1.6-0.9-1.6-1.8c0-0.9,0.5-1.8,1.6-1.8
				C148.6,37.2,149.2,38.1,149.2,39z M147.5,37.6c-0.8,0-1.2,0.8-1.2,1.4c0,0.6,0.3,1.4,1.2,1.4c0.8,0,1.2-0.8,1.2-1.4
				C148.7,38.4,148.4,37.6,147.5,37.6z"/>
		</g>
		<g>
			<path class="st1" d="M150.1,40.7v-3.1h-0.7v-0.4h0.7v-0.7c0-0.6,0.2-0.9,0.8-0.9c0.1,0,0.3,0,0.4,0.1v0.3c-0.1,0-0.2,0-0.3,0
				c-0.6,0-0.6,0.3-0.6,0.8v0.4h0.8v0.4h-0.8v3.1H150.1z"/>
		</g>
		<g>
			<path class="st1" d="M116.4,43.3h-1.6v-0.4h3.6v0.4h-1.6v4.5h-0.5V43.3z"/>
			<path class="st1" d="M118.4,46.2c0,0.7,0.4,1.4,1.2,1.4c0.5,0,0.9-0.4,1-0.8h0.4c-0.2,0.8-0.7,1.2-1.6,1.2c-1,0-1.5-0.9-1.5-1.8
				c0-0.9,0.5-1.8,1.5-1.8c1.2,0,1.6,0.8,1.6,1.9H118.4z M120.6,45.8c0-0.7-0.4-1.2-1.1-1.2c-0.7,0-1,0.6-1.1,1.2H120.6z"/>
		</g>
		<g>
			<path class="st1" d="M124.1,45.4c0-0.5-0.4-0.8-0.9-0.8c-0.6,0-1,0.7-1,1.4c0,0.8,0.4,1.5,1,1.5c0.5,0,0.9-0.3,0.9-0.8h0.4
				c-0.1,0.8-0.6,1.2-1.3,1.2c-1,0-1.5-0.9-1.5-1.8c0-0.9,0.5-1.8,1.5-1.8c0.7,0,1.3,0.4,1.3,1.2H124.1z"/>
			<path class="st1" d="M125.6,44.9L125.6,44.9c0.3-0.4,0.6-0.6,1.1-0.6c1.1,0,1.2,1,1.2,1.4v2.2h-0.4v-2.2c0-0.6-0.3-0.9-0.9-0.9
				c-0.7,0-1,0.6-1,1.2v2h-0.4v-5h0.4V44.9z"/>
		</g>
		<g>
			<path class="st1" d="M129.1,47.8h-0.4v-2.7c0-0.3,0-0.5,0-0.8h0.4l0,0.5l0,0c0.2-0.4,0.6-0.6,1.1-0.6c1.1,0,1.2,1,1.2,1.4v2.2
				H131v-2.2c0-0.6-0.3-0.9-0.9-0.9c-0.7,0-1,0.6-1,1.2V47.8z"/>
			<path class="st1" d="M135.4,46.1c0,0.9-0.5,1.8-1.6,1.8c-1.1,0-1.6-0.9-1.6-1.8c0-0.9,0.5-1.8,1.6-1.8
				C134.9,44.3,135.4,45.2,135.4,46.1z M133.8,44.7c-0.8,0-1.2,0.8-1.2,1.4c0,0.6,0.3,1.4,1.2,1.4c0.8,0,1.2-0.8,1.2-1.4
				C135,45.5,134.7,44.7,133.8,44.7z"/>
		</g>
		<g>
			<path class="st1" d="M136.6,47.8h-0.4v-5h0.4V47.8z"/>
			<path class="st1" d="M140.5,46.1c0,0.9-0.5,1.8-1.6,1.8c-1.1,0-1.6-0.9-1.6-1.8c0-0.9,0.5-1.8,1.6-1.8
				C140,44.3,140.5,45.2,140.5,46.1z M138.9,44.7c-0.8,0-1.2,0.8-1.2,1.4c0,0.6,0.3,1.4,1.2,1.4c0.8,0,1.2-0.8,1.2-1.4
				C140,45.5,139.7,44.7,138.9,44.7z"/>
		</g>
		<g>
			<path class="st1" d="M143.7,44.4h0.4c0,0.2,0,0.5,0,0.8v2.1c0,0.7,0,1.4-0.7,1.8c-0.3,0.1-0.5,0.2-0.8,0.2
				c-0.6,0-1.4-0.2-1.4-0.9h0.4c0,0.4,0.5,0.5,1,0.5c0.5,0,1-0.4,1-1v-0.6h0c-0.2,0.4-0.7,0.6-1.1,0.6c-1,0-1.5-0.8-1.5-1.7
				c0-0.9,0.4-1.8,1.5-1.8c0.5,0,0.9,0.2,1.1,0.6l0,0L143.7,44.4z M142.6,44.7c-0.7,0-1.1,0.8-1.1,1.4c0,0.6,0.3,1.4,1.1,1.4
				c0.8,0,1.1-0.7,1.1-1.4C143.7,45.4,143.3,44.7,142.6,44.7z"/>
			<path class="st1" d="M145.2,44.4l1.2,2.9l1.2-2.9h0.4l-1.9,4.8h-0.5l0.5-1.3l-1.4-3.4H145.2z"/>
		</g>
	</g>
	<path class="st1" d="M96.4,47.8V36.3h3.1v-1.8h-3.1v-2.1c0-1.5,0.7-1.8,2.2-1.8c0.4,0,0.8,0.1,1.3,0.1v-2.1
		c-0.6-0.1-1.2-0.3-1.8-0.3c-2.4,0-4.2,1.2-4.2,3.7v2.5h-2.6v1.8h2.6v11.6H96.4z"/>
	<path class="st1" d="M100.9,34.5v1.8h2.3v8.5c0,1.8,0,3.5,3.8,3.5c0.6,0,1.1-0.1,1.7-0.2v-1.9c-0.4,0.1-0.9,0.2-1.3,0.2
		c-0.9,0-1.6-0.5-1.6-1.4v-8.6h3.1v-1.8h-3.1v-3.6l-2.5,0.8v2.8L100.9,34.5z"/>
	<path class="st1" d="M52.8,47.8h6.6c8.2,0,9-6.9,9-9.6c0-2.6-0.9-9.6-9-9.6h-6.6V47.8z M55.5,31h3.9c4.4,0,6.3,3.3,6.3,7.3
		c0,4-1.8,7.3-6.3,7.3h-3.9V31z"/>
</g>
</svg>
